<svg id="svg" version="1.1" xmlns="http://www.w3.org/2000/svg" xmlns:xlink="http://www.w3.org/1999/xlink" width="400" height="664.9885583524028" viewBox="0, 0, 400,664.9885583524028"><g id="svgg"><path id="path0" d="M40.055 0.280 C 37.908 0.501,30.557 3.951,29.304 5.327 C 28.966 5.698,28.191 6.601,27.581 7.333 C 26.972 8.066,26.029 9.162,25.487 9.770 C 23.059 12.494,20.548 18.587,19.419 24.495 C 19.102 26.152,18.788 27.595,18.722 27.703 C 18.655 27.811,18.271 29.761,17.869 32.037 C 17.466 34.313,16.847 37.734,16.493 39.640 C 16.139 41.545,15.453 45.288,14.969 47.956 C 14.484 50.624,13.799 54.366,13.445 56.272 C 12.149 63.250,11.297 67.872,10.533 72.072 C 10.103 74.435,9.366 78.489,8.894 81.081 C 8.423 83.673,7.789 87.103,7.484 88.704 C 7.180 90.305,6.546 93.735,6.075 96.327 C 5.603 98.919,4.928 102.599,4.574 104.505 C 4.221 106.410,3.553 110.028,3.092 112.543 C 2.630 115.059,1.930 118.863,1.537 120.998 C -0.595 132.557,-0.381 141.040,2.280 150.381 C 3.106 153.283,7.019 164.002,7.864 165.679 C 8.388 166.718,9.217 168.441,9.707 169.508 C 10.197 170.575,11.255 172.821,12.058 174.498 C 12.860 176.175,14.168 178.919,14.964 180.596 C 15.760 182.273,17.037 184.955,17.801 186.556 C 18.566 188.157,19.875 190.901,20.709 192.654 C 27.090 206.062,27.736 207.320,28.542 207.894 C 29.343 208.463,29.507 209.870,30.081 221.067 C 30.267 224.703,30.818 226.108,32.539 227.339 C 33.166 227.788,33.890 228.330,34.147 228.543 C 34.403 228.756,34.965 229.156,35.394 229.432 C 35.823 229.708,36.299 230.034,36.452 230.157 C 36.604 230.280,37.602 231.004,38.669 231.765 C 39.737 232.526,40.799 233.300,41.030 233.484 C 41.260 233.668,41.902 234.124,42.455 234.497 C 43.304 235.069,43.549 235.480,44.023 237.130 C 44.332 238.205,44.794 239.773,45.050 240.614 L 45.516 242.143 44.493 244.356 C 43.930 245.574,43.118 247.326,42.688 248.251 C 40.993 251.897,41.067 252.923,43.321 257.006 C 43.964 258.172,45.788 261.478,47.374 264.352 C 51.573 271.961,51.727 272.193,53.827 274.012 C 54.882 274.927,56.221 276.112,56.801 276.646 C 58.190 277.923,61.690 281.050,62.967 282.156 C 63.805 282.881,64.003 283.259,64.109 284.344 C 64.180 285.065,64.581 289.647,65.000 294.525 C 65.419 299.404,65.796 303.734,65.839 304.147 C 65.915 304.880,67.711 311.443,69.351 316.979 C 69.803 318.503,70.541 321.123,70.992 322.800 C 71.443 324.477,71.868 326.036,71.937 326.265 C 72.006 326.493,72.329 327.616,72.656 328.760 C 73.339 331.152,74.054 332.236,76.212 334.143 C 78.366 336.047,82.236 339.547,83.286 340.541 C 83.770 340.998,84.851 341.996,85.690 342.758 C 90.421 347.058,92.876 349.302,94.373 350.691 C 96.706 352.858,99.045 354.891,99.676 355.300 C 99.969 355.489,100.832 356.042,101.594 356.527 C 102.356 357.013,103.516 357.762,104.172 358.192 C 104.827 358.623,105.419 358.974,105.486 358.974 C 105.554 358.974,106.826 359.745,108.314 360.687 C 109.802 361.629,111.934 362.970,113.052 363.667 C 114.170 364.364,115.528 365.222,116.069 365.575 C 118.192 366.957,130.205 367.532,142.655 366.848 L 150.175 366.434 152.017 367.278 C 153.031 367.742,153.916 368.122,153.985 368.122 C 154.053 368.122,154.892 368.479,155.849 368.916 C 156.806 369.353,158.524 370.116,159.667 370.612 C 160.811 371.108,162.245 371.735,162.855 372.007 C 163.465 372.278,164.401 372.681,164.934 372.903 C 165.468 373.125,167.929 374.573,170.404 376.120 C 172.878 377.667,174.976 378.933,175.066 378.933 C 175.156 378.933,175.773 379.307,176.438 379.764 C 177.103 380.222,177.780 380.596,177.943 380.596 C 178.106 380.596,178.240 380.701,178.240 380.829 C 178.240 380.957,178.583 381.216,179.002 381.406 C 179.421 381.595,180.409 382.176,181.197 382.698 C 181.985 383.219,182.765 383.645,182.930 383.645 C 183.095 383.645,183.229 383.739,183.229 383.854 C 183.229 383.968,183.822 384.372,184.546 384.751 C 185.916 385.468,187.561 386.483,188.138 386.968 C 188.322 387.122,188.554 387.249,188.652 387.249 C 188.751 387.249,189.386 387.623,190.064 388.080 C 190.741 388.538,191.349 388.912,191.413 388.912 C 191.646 388.912,195.844 391.550,195.934 391.753 C 195.985 391.868,196.144 391.961,196.286 391.961 C 196.429 391.961,197.074 392.300,197.719 392.714 C 198.364 393.128,199.330 393.721,199.867 394.031 C 200.404 394.341,201.838 395.197,203.055 395.934 C 204.271 396.671,206.389 397.944,207.762 398.763 C 209.134 399.582,210.385 400.351,210.542 400.473 C 210.699 400.594,211.211 400.908,211.680 401.170 C 214.568 402.786,218.957 405.283,221.344 406.668 C 222.869 407.552,225.239 408.908,226.611 409.683 C 227.983 410.457,229.730 411.460,230.492 411.913 C 231.254 412.365,232.439 413.050,233.125 413.434 C 233.812 413.819,234.872 414.445,235.482 414.826 C 236.091 415.207,236.778 415.614,237.006 415.729 C 242.637 418.573,245.945 420.800,246.848 422.354 C 247.278 423.095,247.707 423.763,247.800 423.839 C 247.968 423.976,253.174 431.714,257.290 437.944 C 258.460 439.715,259.541 441.303,259.691 441.472 C 259.841 441.641,260.934 443.263,262.120 445.076 C 263.307 446.888,264.350 448.434,264.438 448.510 C 264.527 448.586,265.156 449.522,265.835 450.589 C 266.514 451.656,267.142 452.592,267.230 452.668 C 267.317 452.744,267.688 453.306,268.053 453.915 C 268.418 454.525,268.793 455.087,268.887 455.163 C 268.981 455.239,270.038 456.798,271.236 458.628 C 272.434 460.457,273.499 462.017,273.602 462.093 C 273.705 462.169,274.633 463.978,275.665 466.112 C 280.572 476.272,281.383 477.955,282.709 480.735 C 283.491 482.374,284.741 484.993,285.488 486.556 C 286.235 488.119,287.559 490.894,288.431 492.723 C 289.302 494.553,290.798 497.672,291.754 499.653 C 292.710 501.635,294.179 504.692,295.017 506.445 C 295.856 508.198,297.381 511.379,298.406 513.514 C 299.430 515.648,300.893 518.704,301.655 520.305 C 304.035 525.300,307.908 533.379,311.025 539.848 C 313.055 544.061,314.866 547.847,317.254 552.876 C 318.504 555.510,320.279 559.202,324.182 567.290 C 325.139 569.272,326.515 572.141,327.240 573.666 C 327.965 575.191,329.554 578.496,330.772 581.012 C 331.989 583.527,333.480 586.646,334.084 587.942 C 334.689 589.238,335.846 591.670,336.656 593.347 C 338.725 597.634,341.842 604.142,346.016 612.890 C 346.707 614.338,348.111 617.270,349.135 619.404 C 352.598 626.620,354.314 630.204,355.703 633.125 C 356.464 634.726,357.811 637.533,358.696 639.362 C 361.383 644.918,364.386 651.172,365.351 653.222 C 368.055 658.970,370.141 663.312,370.611 664.172 L 371.141 665.142 376.248 665.217 L 381.356 665.293 381.531 664.418 C 381.745 663.348,381.331 661.728,380.373 659.880 C 379.976 659.115,379.643 658.427,379.631 658.351 C 379.620 658.274,379.097 657.152,378.469 655.856 C 376.327 651.431,373.661 645.886,372.175 642.761 C 371.358 641.044,369.940 638.080,369.023 636.175 C 366.523 630.977,364.335 626.411,362.713 623.008 C 361.914 621.331,360.483 618.337,359.533 616.355 C 358.583 614.373,357.195 611.473,356.449 609.910 C 353.093 602.877,352.106 600.824,350.013 596.535 C 348.787 594.019,347.770 591.899,347.755 591.823 C 347.727 591.687,347.279 590.744,343.972 583.853 C 339.817 575.195,338.830 573.142,337.149 569.647 C 336.158 567.588,334.787 564.719,334.100 563.271 C 333.414 561.823,331.978 558.829,330.909 556.618 C 328.785 552.226,326.347 547.140,324.399 543.035 C 323.711 541.587,322.461 538.967,321.620 537.214 C 320.058 533.956,318.241 530.160,315.185 523.770 C 313.204 519.630,311.159 515.377,308.605 510.086 C 307.621 508.049,306.342 505.367,305.762 504.127 C 305.182 502.886,303.684 499.751,302.434 497.159 C 301.183 494.567,299.655 491.386,299.038 490.090 C 298.420 488.794,296.917 485.676,295.698 483.160 C 294.478 480.644,293.079 477.713,292.587 476.646 C 292.095 475.579,290.939 473.146,290.017 471.240 C 289.095 469.335,287.228 465.468,285.868 462.647 C 284.204 459.197,282.556 456.294,280.831 453.777 C 277.844 449.417,271.021 439.279,269.946 437.605 C 269.539 436.971,269.102 436.326,268.976 436.172 C 268.849 436.019,267.128 433.462,265.150 430.490 C 263.173 427.518,261.482 425.024,261.393 424.948 C 261.305 424.872,260.933 424.310,260.568 423.701 C 260.203 423.091,259.832 422.529,259.744 422.453 C 259.589 422.320,255.867 416.836,254.505 414.736 C 253.210 412.738,251.807 411.629,248.510 409.998 C 248.053 409.772,247.616 409.513,247.540 409.422 C 247.464 409.332,246.653 408.840,245.738 408.329 C 240.324 405.304,237.707 403.761,237.607 403.535 C 237.556 403.420,237.409 403.326,237.280 403.326 C 237.072 403.326,230.326 399.610,229.245 398.900 C 229.016 398.750,227.789 398.032,226.519 397.304 C 225.249 396.576,223.627 395.641,222.915 395.227 C 222.204 394.812,221.435 394.383,221.206 394.273 C 220.846 394.100,218.395 392.672,217.004 391.825 C 216.751 391.671,215.753 391.101,214.786 390.557 C 213.819 390.014,211.033 388.340,208.593 386.836 C 206.154 385.333,203.659 383.807,203.049 383.444 C 202.439 383.082,200.132 381.681,197.921 380.332 C 195.710 378.984,191.594 376.486,188.773 374.781 C 185.953 373.077,183.404 371.537,183.109 371.358 C 182.815 371.179,181.537 370.378,180.271 369.577 C 179.004 368.777,177.895 368.122,177.807 368.122 C 177.719 368.122,177.103 367.748,176.438 367.290 C 175.773 366.833,175.149 366.459,175.052 366.459 C 174.954 366.459,174.353 366.101,173.716 365.663 C 172.369 364.737,168.834 362.848,167.429 362.302 C 166.455 361.924,165.691 361.594,161.331 359.667 C 157.002 357.754,155.933 357.276,154.816 356.753 C 153.000 355.903,151.207 355.624,148.839 355.821 C 147.629 355.922,146.639 355.897,146.639 355.765 C 146.639 355.506,151.906 347.571,152.244 347.320 C 152.459 347.160,154.678 342.775,154.678 342.509 C 154.678 342.423,155.161 341.321,155.751 340.061 C 156.342 338.800,157.476 336.334,158.270 334.581 C 159.065 332.827,160.028 330.707,160.409 329.868 C 160.791 329.030,161.341 327.814,161.633 327.166 C 162.830 324.501,163.265 323.543,164.079 321.772 C 164.549 320.749,164.934 319.854,164.934 319.782 C 164.934 319.619,166.515 316.175,168.256 312.543 C 168.987 311.019,169.897 309.085,170.278 308.247 C 171.412 305.748,172.679 303.030,174.257 299.707 C 175.075 297.983,175.745 296.514,175.745 296.443 C 175.745 296.371,176.556 294.631,177.547 292.574 C 178.538 290.518,179.349 288.788,179.349 288.729 C 179.349 288.632,180.069 287.090,183.673 279.474 C 184.344 278.056,184.893 276.833,184.893 276.757 C 184.893 276.680,185.567 275.221,186.392 273.513 C 187.217 271.806,188.291 269.473,188.779 268.330 C 189.963 265.555,190.227 264.957,191.387 262.433 C 191.931 261.248,192.377 260.222,192.377 260.153 C 192.377 260.084,192.764 259.183,193.236 258.150 C 195.333 253.569,195.634 252.891,195.982 251.975 C 196.185 251.441,196.442 250.880,196.554 250.728 C 196.666 250.575,197.704 248.236,198.861 245.529 L 200.965 240.608 201.692 232.362 C 202.894 218.732,203.061 221.059,200.288 212.741 C 198.969 208.783,197.779 205.295,197.645 204.990 C 197.510 204.685,196.947 203.064,196.393 201.388 C 195.394 198.366,194.956 197.599,190.772 191.545 C 190.192 190.707,188.167 187.713,186.272 184.893 C 184.376 182.072,182.757 179.702,182.672 179.626 C 182.526 179.494,177.181 171.590,175.772 169.423 C 175.406 168.860,175.028 168.337,174.931 168.261 C 174.764 168.129,170.562 161.938,168.628 158.974 C 168.131 158.212,167.525 157.339,167.283 157.034 C 167.041 156.729,165.291 154.172,163.395 151.351 C 161.498 148.531,159.430 145.475,158.798 144.560 C 158.166 143.645,156.520 141.213,155.141 139.155 C 153.761 137.096,152.556 135.350,152.463 135.274 C 152.369 135.198,151.994 134.636,151.629 134.026 C 151.263 133.416,150.833 132.826,150.673 132.714 C 148.660 131.309,157.025 135.202,159.422 136.785 C 161.383 138.081,164.105 139.740,165.489 140.482 C 166.175 140.850,166.798 141.246,166.875 141.362 C 166.951 141.477,167.415 141.778,167.906 142.030 C 168.847 142.512,170.663 143.665,171.229 144.140 C 171.413 144.295,171.638 144.421,171.729 144.421 C 171.820 144.421,173.271 145.295,174.952 146.362 C 176.633 147.429,178.123 148.302,178.263 148.302 C 178.403 148.302,178.517 148.412,178.517 148.546 C 178.517 148.680,178.874 148.937,179.311 149.118 C 180.221 149.495,180.366 149.705,184.478 156.604 C 189.188 164.505,191.760 166.119,195.319 163.404 C 197.536 161.713,198.299 157.072,196.571 155.787 C 196.350 155.622,190.437 145.845,190.437 145.644 C 190.437 145.569,190.312 145.356,190.159 145.172 C 190.006 144.988,189.468 144.213,188.964 143.451 C 188.143 142.209,183.967 138.955,183.117 138.895 C 182.979 138.885,182.480 138.584,182.008 138.225 C 181.536 137.867,180.714 137.351,180.180 137.078 C 179.647 136.805,179.148 136.492,179.071 136.383 C 178.995 136.273,178.559 135.972,178.101 135.714 C 177.644 135.456,176.584 134.821,175.745 134.303 C 174.906 133.785,173.721 133.089,173.112 132.756 C 172.502 132.423,171.940 132.072,171.864 131.977 C 171.788 131.882,170.977 131.350,170.062 130.795 C 169.148 130.240,167.277 129.089,165.904 128.238 C 164.532 127.387,159.917 124.961,155.648 122.846 C 148.693 119.401,146.312 118.426,141.927 117.226 C 141.240 117.039,140.554 116.849,140.402 116.806 C 140.249 116.762,139.175 116.473,138.014 116.163 C 136.853 115.853,135.544 115.411,135.104 115.182 C 134.664 114.952,134.209 114.764,134.093 114.763 C 133.977 114.762,133.353 114.516,132.707 114.216 C 131.593 113.699,130.494 113.237,125.052 110.991 C 123.776 110.464,122.092 109.742,121.310 109.386 C 120.529 109.030,119.577 108.642,119.196 108.524 C 117.937 108.132,114.971 106.591,109.356 103.410 C 106.306 101.683,103.437 100.062,102.980 99.807 C 98.740 97.449,99.284 98.053,96.631 92.753 L 94.222 87.940 93.696 83.125 C 93.406 80.476,93.028 77.214,92.855 75.875 C 92.525 73.319,93.023 70.861,94.469 67.917 C 95.456 65.907,98.507 65.542,102.148 67.000 C 105.708 68.425,113.344 71.307,116.979 72.597 C 118.122 73.003,119.182 73.409,119.335 73.499 C 119.487 73.589,120.111 73.820,120.721 74.012 C 121.331 74.205,121.954 74.454,122.107 74.567 C 122.710 75.013,124.485 75.098,127.928 74.846 C 129.910 74.701,134.588 74.395,138.323 74.167 C 142.058 73.938,145.613 73.676,146.223 73.584 C 146.833 73.492,147.644 73.369,148.025 73.311 C 148.771 73.197,154.201 72.266,160.970 71.092 L 165.183 70.362 170.810 73.182 C 175.417 75.491,179.010 77.609,183.507 80.666 C 183.735 80.822,185.295 81.839,186.972 82.926 C 192.507 86.515,195.005 88.143,195.426 88.436 C 195.655 88.595,197.651 89.901,199.861 91.337 C 202.072 92.774,204.068 94.076,204.297 94.229 C 213.183 100.183,215.386 101.464,218.850 102.684 C 219.917 103.060,221.601 103.670,222.592 104.040 C 223.583 104.409,225.329 105.046,226.473 105.455 C 227.616 105.864,228.801 106.314,229.106 106.454 C 229.812 106.779,233.047 107.973,235.204 108.705 C 236.119 109.015,237.242 109.426,237.699 109.617 C 238.157 109.809,238.905 110.097,239.362 110.258 C 239.820 110.419,240.444 110.645,240.748 110.761 C 241.053 110.876,241.365 110.992,241.441 111.018 C 241.518 111.044,241.954 111.212,242.412 111.391 C 242.869 111.570,243.972 111.997,244.862 112.338 C 246.195 112.849,246.804 113.326,248.312 115.038 C 249.319 116.182,250.462 117.434,250.851 117.822 C 251.241 118.209,252.994 120.076,254.747 121.971 C 256.500 123.865,258.434 125.939,259.044 126.579 C 259.653 127.218,260.950 128.631,261.926 129.719 C 264.616 132.717,267.184 135.033,273.074 139.771 C 273.921 140.453,278.886 144.514,287.318 151.422 C 290.475 154.009,291.854 155.359,297.713 161.602 C 299.619 163.632,301.802 165.949,302.564 166.751 C 303.326 167.553,305.509 169.872,307.415 171.905 C 309.321 173.939,311.878 176.667,313.098 177.968 C 315.334 180.353,315.844 180.921,319.537 185.128 C 320.654 186.401,321.721 187.596,321.907 187.783 C 322.093 187.971,323.306 189.352,324.602 190.853 C 325.897 192.353,327.332 193.980,327.789 194.467 C 328.247 194.953,329.307 196.144,330.146 197.113 C 330.984 198.082,331.920 199.133,332.225 199.450 C 332.529 199.767,333.397 200.750,334.153 201.634 C 334.909 202.519,336.003 203.761,336.586 204.394 C 337.456 205.338,339.293 208.577,339.293 209.166 C 339.293 209.251,339.598 209.968,339.971 210.759 C 340.344 211.550,341.042 213.132,341.524 214.276 C 342.613 216.863,344.133 220.336,345.006 222.228 C 345.370 223.019,345.669 223.743,345.669 223.837 C 345.669 224.008,346.266 225.390,347.467 227.997 C 348.206 229.600,349.065 231.538,349.126 231.739 C 349.149 231.816,349.378 232.361,349.636 232.951 C 349.893 233.542,350.104 234.078,350.104 234.142 C 350.104 235.804,352.276 238.584,358.741 245.200 C 371.322 258.076,370.092 256.974,378.619 263.000 C 379.325 263.499,381.026 264.714,382.398 265.700 C 383.770 266.686,385.741 268.086,386.779 268.812 C 387.816 269.538,389.701 270.880,390.967 271.795 C 392.234 272.710,393.551 273.645,393.895 273.874 C 394.238 274.103,395.044 274.683,395.684 275.164 C 397.202 276.304,399.494 277.755,399.777 277.755 C 399.900 277.755,399.997 274.917,399.992 271.448 L 399.985 265.142 399.006 264.449 C 398.467 264.068,397.878 263.625,397.697 263.466 C 397.515 263.306,396.681 262.707,395.842 262.136 C 395.003 261.564,393.195 260.289,391.823 259.302 C 390.450 258.315,388.704 257.074,387.942 256.544 C 387.179 256.014,386.244 255.362,385.863 255.097 C 385.482 254.831,384.221 253.926,383.062 253.086 C 381.903 252.247,380.667 251.372,380.314 251.143 C 378.112 249.714,375.261 246.963,365.171 236.537 C 361.412 232.652,360.878 231.979,360.064 230.098 C 359.563 228.942,358.819 227.249,358.409 226.334 C 357.596 224.519,356.548 222.088,355.002 218.427 C 354.453 217.127,353.823 215.692,353.601 215.239 C 353.380 214.785,352.677 213.167,352.039 211.642 C 351.401 210.118,350.440 207.935,349.905 206.791 C 349.369 205.648,348.772 204.269,348.578 203.728 C 347.904 201.839,346.531 199.437,345.480 198.307 C 344.898 197.681,343.735 196.379,342.897 195.414 C 340.958 193.182,338.904 190.848,337.786 189.605 C 337.305 189.071,335.692 187.263,334.200 185.586 C 332.708 183.909,330.764 181.726,329.881 180.735 C 328.997 179.744,327.918 178.496,327.482 177.963 C 327.046 177.429,326.615 176.930,326.523 176.854 C 326.431 176.778,325.197 175.405,323.779 173.805 C 322.361 172.204,320.875 170.576,320.476 170.188 C 320.077 169.799,318.067 167.679,316.009 165.475 C 313.952 163.272,311.195 160.347,309.883 158.974 C 308.570 157.602,306.756 155.669,305.850 154.678 C 304.944 153.687,303.897 152.556,303.522 152.164 C 303.148 151.773,301.724 150.283,300.358 148.853 C 298.992 147.424,295.062 143.947,291.626 141.128 C 288.189 138.309,284.459 135.246,283.335 134.321 C 277.574 129.579,275.805 128.133,274.837 127.374 C 273.684 126.469,271.138 123.972,269.161 121.807 C 266.391 118.772,262.035 114.065,261.123 113.121 C 260.589 112.570,258.905 110.768,257.380 109.117 C 255.856 107.467,254.234 105.713,253.777 105.220 C 252.811 104.179,250.926 103.049,249.342 102.562 C 248.732 102.375,247.859 102.060,247.401 101.863 C 246.517 101.481,244.471 100.734,241.303 99.635 C 240.236 99.265,239.113 98.839,238.808 98.688 C 238.304 98.439,235.796 97.514,229.660 95.312 C 228.441 94.874,227.193 94.393,226.888 94.244 C 226.584 94.094,225.648 93.728,224.809 93.430 C 223.971 93.132,222.474 92.593,221.483 92.231 C 220.058 91.711,215.750 89.141,212.335 86.773 C 211.401 86.125,207.301 83.455,204.534 81.691 C 202.911 80.657,201.320 79.598,200.999 79.337 C 200.678 79.077,199.036 77.990,197.352 76.923 C 195.667 75.856,192.720 73.954,190.802 72.696 C 188.884 71.438,187.217 70.409,187.097 70.409 C 186.977 70.409,186.838 70.306,186.787 70.180 C 186.135 68.564,167.036 58.971,165.401 59.439 C 164.801 59.610,161.638 60.172,152.088 61.802 C 149.368 62.266,147.047 62.705,146.931 62.777 C 146.814 62.849,143.426 63.096,139.402 63.326 C 135.378 63.556,130.527 63.880,128.621 64.046 L 125.156 64.349 122.938 63.479 C 121.719 63.000,119.910 62.314,118.919 61.954 C 117.928 61.594,116.119 60.908,114.900 60.428 C 113.680 59.949,111.746 59.237,110.603 58.846 C 109.459 58.455,108.399 58.044,108.247 57.933 C 108.094 57.822,107.283 57.511,106.445 57.242 C 105.606 56.973,104.796 56.661,104.643 56.549 C 104.491 56.437,103.680 56.126,102.841 55.859 C 102.003 55.592,100.942 55.219,100.485 55.030 C 100.028 54.841,99.338 54.559,98.952 54.404 C 98.567 54.249,97.881 53.576,97.428 52.910 C 96.975 52.243,96.440 51.524,96.239 51.312 C 96.038 51.100,95.664 50.602,95.409 50.204 C 95.154 49.806,94.845 49.356,94.723 49.203 C 94.601 49.051,93.686 47.803,92.690 46.431 C 91.694 45.059,90.649 43.624,90.368 43.243 C 88.958 41.334,87.191 38.908,86.078 37.353 C 85.397 36.400,84.516 35.184,84.122 34.650 C 83.727 34.116,82.262 32.121,80.865 30.215 C 79.468 28.309,78.197 26.599,78.040 26.416 C 77.883 26.232,77.131 25.190,76.369 24.101 C 75.606 23.012,73.774 20.481,72.298 18.476 C 70.821 16.471,69.347 14.456,69.022 13.999 C 68.697 13.541,67.597 12.026,66.579 10.631 C 65.560 9.236,64.539 7.821,64.310 7.487 C 64.082 7.152,63.614 6.547,63.271 6.142 C 62.928 5.737,62.648 5.313,62.648 5.201 C 62.647 4.711,60.253 3.567,56.671 2.346 C 54.546 1.621,52.132 0.797,51.308 0.514 C 49.710 -0.034,44.232 -0.148,40.055 0.280 M47.864 11.383 C 48.448 11.518,49.362 11.632,49.895 11.636 C 52.394 11.653,55.054 12.945,56.370 14.780 C 57.045 15.722,57.830 16.773,58.113 17.115 C 58.396 17.457,59.252 18.623,60.014 19.707 C 61.988 22.513,69.231 32.409,69.993 33.341 C 70.146 33.527,70.644 34.241,71.101 34.927 C 71.558 35.613,71.999 36.237,72.080 36.313 C 72.162 36.389,72.720 37.138,73.319 37.976 C 73.919 38.815,74.480 39.563,74.566 39.640 C 74.652 39.716,75.610 41.026,76.695 42.550 C 78.895 45.640,81.587 49.303,82.036 49.815 C 82.197 49.999,82.328 50.231,82.328 50.329 C 82.328 50.428,82.642 50.901,83.026 51.381 C 84.037 52.645,84.089 52.713,84.836 53.766 C 85.210 54.294,85.733 54.971,85.998 55.271 C 86.263 55.570,86.552 56.042,86.641 56.321 C 86.729 56.599,86.917 56.826,87.060 56.826 C 87.542 56.826,87.321 57.436,86.433 58.557 C 85.282 60.011,83.561 62.762,82.902 64.205 C 82.341 65.431,81.712 72.560,81.975 74.705 C 82.141 76.057,82.059 75.977,79.967 72.765 C 79.073 71.393,78.267 70.208,78.177 70.132 C 78.086 70.055,77.396 68.995,76.643 67.775 C 75.890 66.556,75.118 65.371,74.927 65.142 C 74.737 64.913,73.401 62.918,71.958 60.707 C 70.516 58.496,69.230 56.563,69.101 56.410 C 68.971 56.258,68.008 54.823,66.960 53.222 C 64.265 49.106,54.560 34.433,52.594 31.503 C 51.688 30.153,50.742 28.837,50.491 28.578 C 50.240 28.319,49.751 27.729,49.404 27.266 C 46.471 23.351,46.359 23.270,39.249 19.948 C 37.308 19.041,35.122 19.081,33.238 20.058 C 32.447 20.468,31.758 20.763,31.708 20.712 C 31.476 20.480,33.375 17.013,34.436 15.731 C 36.494 13.244,37.906 12.261,41.164 11.045 C 41.818 10.801,46.339 11.029,47.864 11.383 M38.105 31.222 C 39.640 32.040,39.794 32.174,40.754 33.537 C 41.128 34.069,41.623 34.699,41.853 34.938 C 42.477 35.582,43.602 37.100,44.075 37.935 C 44.304 38.339,44.563 38.732,44.652 38.808 C 44.740 38.884,45.417 39.882,46.155 41.026 C 49.209 45.755,52.226 50.321,52.385 50.450 C 52.478 50.527,53.095 51.454,53.756 52.510 C 54.417 53.567,55.076 54.565,55.220 54.728 C 55.364 54.891,55.753 55.485,56.085 56.049 C 56.676 57.055,65.460 70.281,65.897 70.825 C 66.019 70.977,66.979 72.412,68.030 74.012 C 69.081 75.613,73.133 81.700,77.035 87.538 C 80.938 93.377,84.317 98.442,84.546 98.794 C 84.775 99.146,85.183 99.733,85.454 100.098 C 85.725 100.464,86.480 101.573,87.132 102.564 C 87.783 103.555,89.796 106.549,91.604 109.217 C 93.412 111.885,95.523 115.003,96.297 116.147 C 97.070 117.290,97.808 118.351,97.938 118.503 C 98.068 118.656,98.632 119.486,99.191 120.349 C 100.288 122.041,103.396 126.643,103.749 127.096 C 103.867 127.249,104.748 128.559,105.706 130.007 C 106.664 131.455,108.002 133.433,108.679 134.402 C 109.356 135.372,110.492 137.056,111.204 138.145 C 111.916 139.234,112.606 140.249,112.738 140.402 C 112.869 140.554,113.278 141.178,113.646 141.788 C 114.015 142.398,114.400 142.959,114.502 143.035 C 114.604 143.112,115.427 144.297,116.329 145.669 C 117.232 147.041,118.152 148.430,118.375 148.755 C 121.535 153.368,124.463 157.815,124.463 158.000 C 124.463 158.130,124.560 158.277,124.678 158.328 C 124.796 158.378,125.565 159.480,126.387 160.776 C 127.210 162.072,127.958 163.195,128.050 163.271 C 128.142 163.347,128.775 164.283,129.457 165.350 C 130.138 166.417,130.798 167.415,130.923 167.568 C 131.048 167.720,132.074 169.279,133.204 171.033 C 134.333 172.786,135.437 174.470,135.656 174.775 C 136.060 175.336,140.512 182.045,144.025 187.387 C 145.077 188.988,146.043 190.423,146.171 190.575 C 146.298 190.728,147.942 193.222,149.823 196.119 C 151.704 199.016,153.498 201.711,153.809 202.108 C 154.121 202.505,154.521 203.191,154.700 203.632 C 154.878 204.074,155.130 204.685,155.260 204.990 C 155.505 205.564,156.524 208.298,157.482 210.949 C 157.785 211.788,158.202 212.848,158.408 213.306 C 158.665 213.875,158.928 217.149,159.243 223.701 L 159.703 233.264 157.439 239.640 C 156.194 243.146,155.144 246.140,155.107 246.292 C 155.069 246.445,154.958 246.757,154.860 246.985 C 154.762 247.214,153.868 249.709,152.872 252.529 C 151.877 255.350,150.984 257.845,150.888 258.073 C 150.792 258.302,150.681 258.614,150.643 258.766 C 150.240 260.345,147.769 266.622,145.950 270.686 C 145.609 271.448,145.232 272.384,145.114 272.765 C 144.995 273.146,144.666 273.893,144.383 274.424 C 144.099 274.956,143.867 275.482,143.867 275.594 C 143.867 275.706,143.568 276.456,143.202 277.261 C 142.836 278.066,142.320 279.224,142.054 279.834 L 141.571 280.942 141.201 277.616 C 140.080 267.547,136.041 261.400,130.546 261.400 C 128.268 261.400,125.064 263.271,125.026 264.623 C 125.021 264.795,124.840 265.083,124.623 265.263 C 124.406 265.443,124.149 266.062,124.052 266.638 C 123.954 267.215,123.698 268.027,123.483 268.442 C 122.449 270.434,122.300 282.443,123.286 284.270 C 123.450 284.574,123.794 285.661,124.052 286.684 C 124.699 289.263,126.103 291.414,127.909 292.598 C 128.301 292.855,128.625 293.331,128.630 293.656 C 128.639 294.287,129.134 295.086,129.591 295.210 C 129.744 295.251,130.157 295.395,130.510 295.529 C 130.863 295.663,132.093 295.773,133.243 295.773 L 135.334 295.773 135.157 296.476 C 135.060 296.863,134.627 297.954,134.195 298.901 C 133.763 299.849,133.315 300.936,133.200 301.317 C 133.085 301.698,132.694 302.668,132.331 303.473 C 131.967 304.278,131.670 304.987,131.670 305.049 C 131.670 305.111,131.525 305.513,131.347 305.942 C 131.169 306.371,131.006 306.784,130.984 306.861 C 130.961 306.937,130.733 307.482,130.475 308.073 C 130.218 308.663,130.007 309.226,130.007 309.324 C 130.007 309.422,129.776 309.937,129.493 310.468 C 129.211 311.000,128.820 311.933,128.626 312.543 C 128.431 313.153,128.180 313.777,128.067 313.929 C 127.955 314.082,127.594 314.955,127.265 315.870 C 126.936 316.784,126.547 317.782,126.400 318.087 C 125.955 319.015,124.451 322.723,123.982 324.047 C 123.740 324.733,123.387 325.544,123.199 325.849 C 123.011 326.154,122.767 326.715,122.657 327.096 C 122.547 327.477,122.178 328.413,121.837 329.175 C 121.496 329.938,121.055 331.060,120.857 331.670 C 120.660 332.280,120.344 333.028,120.155 333.333 C 119.967 333.638,119.657 334.387,119.468 334.997 C 119.279 335.606,119.035 336.230,118.927 336.383 C 118.818 336.535,118.515 337.221,118.253 337.907 C 117.360 340.248,117.165 340.578,116.330 341.171 L 115.494 341.765 114.143 341.014 C 112.790 340.262,110.382 335.922,105.809 325.988 C 105.422 325.149,104.410 322.993,103.558 321.196 C 102.707 319.399,102.010 317.878,102.010 317.816 C 102.010 317.691,100.456 314.349,98.268 309.771 C 97.466 308.094,96.281 305.599,95.634 304.227 C 94.987 302.855,93.773 300.298,92.935 298.545 C 92.098 296.791,90.916 294.297,90.309 293.001 C 89.702 291.705,88.580 289.335,87.816 287.734 C 87.052 286.133,85.954 283.825,85.376 282.606 C 84.798 281.386,83.702 279.078,82.941 277.477 C 82.180 275.877,80.846 273.070,79.977 271.240 C 75.366 261.532,73.281 257.183,70.412 251.282 C 68.929 248.233,67.005 244.241,66.137 242.412 C 64.457 238.874,64.446 238.851,63.547 237.145 C 63.226 236.535,62.282 234.602,61.450 232.848 C 60.617 231.095,58.940 227.602,57.723 225.087 C 56.506 222.571,54.737 218.891,53.791 216.909 C 51.477 212.057,38.359 185.802,33.432 176.161 C 31.251 171.892,27.154 163.846,24.328 158.281 C 15.860 141.607,15.430 140.793,13.459 137.769 C 12.417 136.168,11.341 134.608,11.069 134.304 C 10.334 133.479,10.996 128.305,13.695 113.791 C 14.868 107.486,15.775 102.560,16.656 97.713 C 17.127 95.121,17.802 91.441,18.157 89.536 C 18.511 87.630,19.178 83.917,19.639 81.286 C 20.100 78.654,20.551 76.269,20.641 75.985 C 20.731 75.702,21.042 74.113,21.332 72.454 C 22.068 68.245,23.433 60.688,24.229 56.410 C 25.338 50.453,26.585 43.607,27.284 39.640 C 27.646 37.581,28.007 35.710,28.085 35.482 C 28.164 35.253,28.303 34.723,28.395 34.304 C 28.517 33.749,28.731 33.541,29.182 33.541 C 29.523 33.541,30.799 33.065,32.018 32.483 C 37.010 30.101,36.282 30.252,38.105 31.222 M111.989 117.015 C 113.808 117.880,114.831 118.338,115.315 118.502 C 115.392 118.528,115.828 118.708,116.286 118.901 C 116.743 119.094,117.605 119.429,118.202 119.644 C 118.799 119.859,119.422 120.142,119.588 120.273 C 119.754 120.403,120.388 120.667,120.998 120.859 C 121.608 121.052,122.232 121.307,122.385 121.427 C 122.537 121.547,123.348 121.910,124.186 122.235 C 125.025 122.559,126.085 122.993,126.542 123.198 C 129.188 124.384,131.446 125.297,132.857 125.750 C 134.146 126.164,134.489 126.400,134.609 126.958 C 134.691 127.339,134.875 127.939,135.018 128.292 C 135.270 128.913,138.286 133.607,138.614 133.888 C 138.752 134.006,139.676 135.345,141.372 137.884 C 141.601 138.226,142.786 139.973,144.006 141.767 C 145.225 143.560,146.410 145.310,146.639 145.654 C 146.868 145.999,147.278 146.580,147.551 146.945 C 147.824 147.310,149.288 149.480,150.803 151.767 C 152.319 154.054,153.663 156.051,153.790 156.205 C 153.917 156.359,155.125 158.105,156.476 160.086 C 160.207 165.559,163.549 170.446,164.719 172.141 C 165.298 172.980,166.764 175.163,167.977 176.992 C 169.190 178.822,170.290 180.447,170.422 180.603 C 170.554 180.760,170.898 181.259,171.187 181.712 C 171.476 182.165,171.779 182.599,171.860 182.675 C 172.033 182.838,175.451 187.855,176.854 190.006 C 177.387 190.823,178.537 192.534,179.408 193.806 C 186.260 203.810,185.675 202.734,187.897 209.425 C 189.010 212.779,190.028 215.773,190.159 216.078 C 190.290 216.383,190.602 217.318,190.852 218.157 C 191.103 218.995,191.438 219.949,191.597 220.277 C 191.922 220.947,191.862 222.131,191.030 231.476 L 190.449 238.004 188.905 241.594 C 188.056 243.568,187.128 245.683,186.843 246.292 C 185.398 249.388,184.615 251.135,184.615 251.268 C 184.615 251.393,183.540 253.801,181.020 259.321 C 180.741 259.931,180.115 261.365,179.627 262.509 C 178.701 264.680,178.231 265.722,176.307 269.854 C 175.669 271.227,174.918 272.848,174.640 273.458 C 174.362 274.068,173.436 276.029,172.583 277.816 C 171.730 279.603,171.033 281.124,171.033 281.195 C 171.033 281.267,170.339 282.799,169.491 284.599 C 168.644 286.400,167.657 288.496,167.298 289.258 C 166.939 290.021,166.396 291.206,166.090 291.892 C 165.785 292.578,164.714 294.865,163.710 296.973 C 162.706 299.082,161.885 300.852,161.885 300.906 C 161.885 300.960,161.127 302.603,160.200 304.556 C 159.273 306.510,158.285 308.607,158.005 309.217 C 156.997 311.415,155.840 313.956,155.229 315.315 C 154.887 316.078,154.186 317.615,153.672 318.731 C 153.158 319.848,152.737 320.797,152.737 320.841 C 152.737 320.884,152.275 321.904,151.711 323.107 C 151.146 324.310,150.667 325.357,150.646 325.433 C 150.592 325.633,149.751 327.524,148.860 329.453 C 148.438 330.367,147.753 331.864,147.339 332.779 C 146.343 334.979,145.390 337.057,144.271 339.468 C 143.767 340.556,142.759 342.302,142.032 343.349 C 141.305 344.396,139.972 346.353,139.069 347.698 C 137.092 350.641,138.079 350.195,127.325 353.000 C 124.253 353.801,122.529 354.535,121.747 355.375 C 121.159 356.005,119.473 355.772,119.473 355.060 C 119.473 354.926,119.356 354.816,119.212 354.816 C 119.068 354.816,118.499 354.550,117.948 354.225 L 116.946 353.633 118.082 353.125 C 118.707 352.845,119.388 352.456,119.596 352.261 C 119.803 352.065,121.077 351.036,122.426 349.974 C 125.615 347.461,126.233 346.770,126.978 344.881 C 127.318 344.018,127.872 342.689,128.209 341.927 C 128.546 341.164,128.917 340.229,129.032 339.848 C 129.148 339.466,129.331 339.030,129.439 338.877 C 129.546 338.725,129.859 337.976,130.135 337.214 C 130.410 336.452,130.913 335.204,131.253 334.442 C 131.593 333.680,131.966 332.744,132.082 332.363 C 132.198 331.982,132.380 331.545,132.488 331.393 C 132.595 331.240,132.887 330.554,133.135 329.868 C 133.384 329.182,133.738 328.247,133.922 327.789 C 134.106 327.332,134.272 326.895,134.290 326.819 C 134.308 326.743,134.458 326.431,134.623 326.126 C 134.788 325.821,135.084 325.073,135.279 324.463 C 135.475 323.853,135.789 323.105,135.978 322.800 C 136.166 322.495,136.476 321.746,136.665 321.137 C 136.854 320.527,137.097 319.903,137.205 319.751 C 137.313 319.598,137.694 318.663,138.051 317.672 C 138.409 316.681,138.852 315.620,139.036 315.315 C 139.219 315.010,139.522 314.281,139.708 313.695 C 139.895 313.108,140.220 312.297,140.431 311.893 C 140.642 311.488,140.815 311.067,140.816 310.956 C 140.817 310.846,141.174 309.973,141.609 309.016 C 142.045 308.059,142.560 306.778,142.754 306.168 C 142.949 305.558,143.196 304.934,143.305 304.782 C 143.414 304.629,144.103 302.945,144.837 301.040 C 145.571 299.134,146.261 297.450,146.369 297.297 C 146.478 297.145,146.726 296.521,146.921 295.911 C 147.116 295.301,147.506 294.368,147.789 293.836 C 148.071 293.305,148.302 292.771,148.302 292.649 C 148.302 292.401,151.293 285.332,152.338 283.108 C 152.710 282.317,153.015 281.599,153.015 281.511 C 153.015 281.424,153.253 280.823,153.545 280.177 C 153.837 279.531,154.597 277.755,155.234 276.230 C 155.871 274.705,156.557 273.084,156.759 272.626 C 158.002 269.817,158.542 268.404,160.524 262.786 C 161.734 259.356,162.835 256.299,162.970 255.994 C 163.515 254.762,170.001 236.092,170.217 235.132 C 170.358 234.509,170.236 229.746,169.912 223.148 L 169.373 212.197 168.384 209.563 C 167.840 208.115,167.136 206.182,166.819 205.267 C 166.502 204.352,166.152 203.479,166.041 203.326 C 165.930 203.174,165.554 202.176,165.205 201.109 C 164.636 199.368,163.510 197.180,162.994 196.812 C 162.887 196.736,162.636 196.362,162.437 195.981 C 162.041 195.225,158.525 189.830,158.281 189.605 C 158.198 189.529,157.573 188.593,156.891 187.526 C 156.210 186.459,155.550 185.461,155.426 185.308 C 155.101 184.910,152.433 180.859,151.710 179.665 C 151.373 179.110,150.912 178.406,150.684 178.101 C 150.457 177.796,149.087 175.738,147.641 173.527 C 146.195 171.317,144.910 169.381,144.786 169.226 C 144.546 168.927,143.263 166.983,141.497 164.241 C 140.907 163.326,140.319 162.453,140.189 162.301 C 139.986 162.064,134.827 154.345,134.026 153.081 C 132.812 151.165,125.434 140.095,125.299 139.986 C 125.204 139.910,124.824 139.349,124.454 138.739 C 124.084 138.129,123.633 137.443,123.452 137.214 C 123.151 136.833,122.030 135.176,115.482 125.433 C 114.252 123.604,113.175 122.044,113.088 121.968 C 113.001 121.892,112.631 121.331,112.266 120.721 C 111.901 120.111,111.527 119.550,111.436 119.473 C 111.219 119.293,110.312 117.947,109.521 116.633 C 108.804 115.442,108.621 115.413,111.989 117.015 M44.617 222.663 C 44.629 222.867,42.187 221.262,41.258 220.455 C 40.917 220.159,40.749 219.359,40.613 217.373 C 40.511 215.898,40.373 214.442,40.307 214.137 C 40.240 213.832,41.179 215.579,42.395 218.018 C 43.610 220.457,44.610 222.548,44.617 222.663 M56.911 247.956 C 57.439 249.023,58.835 251.892,60.012 254.331 C 61.189 256.771,63.000 260.513,64.036 262.647 C 67.641 270.078,68.775 272.540,68.691 272.762 C 68.645 272.885,66.674 271.214,64.310 269.049 L 60.014 265.112 56.492 258.752 C 54.555 255.253,52.965 252.232,52.958 252.039 C 52.936 251.426,55.554 245.603,55.757 245.814 C 55.863 245.925,56.383 246.888,56.911 247.956 M131.706 265.121 C 137.023 267.367,140.189 283.113,136.742 290.173 C 135.602 292.509,132.051 293.509,131.373 291.684 C 131.217 291.265,130.503 290.348,129.786 289.647 C 128.031 287.931,127.985 287.857,127.401 285.793 C 127.121 284.802,126.730 283.430,126.533 282.744 C 125.738 279.976,125.750 272.726,126.554 270.192 C 128.067 265.425,129.376 264.137,131.706 265.121 M75.398 286.334 C 75.398 286.461,76.287 288.418,77.372 290.684 C 78.458 292.949,79.752 295.676,80.248 296.743 C 81.397 299.216,83.327 303.281,85.445 307.692 C 86.360 309.598,87.544 312.093,88.077 313.236 C 88.609 314.380,89.515 316.313,90.090 317.533 C 92.309 322.241,93.228 324.231,93.738 325.433 C 94.498 327.224,96.472 331.344,99.667 337.813 C 101.200 340.914,102.416 343.451,102.370 343.451 C 102.324 343.451,102.061 343.233,101.784 342.966 C 101.508 342.699,100.171 341.483,98.813 340.263 C 97.455 339.044,95.952 337.672,95.472 337.214 C 94.992 336.757,93.431 335.322,92.002 334.026 C 88.700 331.030,85.848 328.426,84.313 327.003 C 82.802 325.604,82.498 324.803,80.356 316.563 C 80.059 315.419,79.699 314.234,79.556 313.929 C 79.414 313.624,79.053 312.439,78.755 311.296 C 78.457 310.152,77.818 307.845,77.335 306.168 C 76.571 303.513,76.374 302.096,75.815 295.218 C 75.462 290.873,75.080 286.956,74.968 286.514 C 74.822 285.940,74.854 285.767,75.081 285.907 C 75.256 286.015,75.398 286.207,75.398 286.334 " stroke="none" fill="#ccac24" fill-rule="evenodd"></path><path id="path1" d="" stroke="none" fill="#d0ac24" fill-rule="evenodd"></path><path id="path2" d="" stroke="none" fill="#d0ac24" fill-rule="evenodd"></path><path id="path3" d="" stroke="none" fill="#d0ac24" fill-rule="evenodd"></path><path id="path4" d="" stroke="none" fill="#d0ac24" fill-rule="evenodd"></path></g></svg>